<svg xmlns="http://www.w3.org/2000/svg" viewBox="0 0 598.28 834.85">
    <defs>
        <style>
            .cls-1{stroke:#000;}
        </style>
    </defs>
    <g id="Layer_2" data-name="Layer 2">
    <g id="Layer_1-2" data-name="Layer 1">
    <path class="cls-1 fill-astro-orange" d="M297.5,537.32c-75.71-.29-151.44.71-227.13-.6a72,72,0,0,0-13.37,1c-6.37,1.19-9.69,5.14-10.69,11.9-10,79.67,24,163,84.16,215.35,7.54,6.6,16.59,11.46,24.85,17.26,13.65,9.76,37.94,21.93,26.54,41.23-5.28,9.26-13.57,13-25,9.71a88.94,88.94,0,0,1-21.52-9.29c-62-37.74-101.53-92.8-121.7-161.74C-12.23,575.31-.67,481.88,54.91,408.68c2.58-3.9,5.62-7.5,8.12-11.44,5.68-8.93,6.84-18.52,3.18-28.49a153.37,153.37,0,0,0-6.59-16.09c-12.69-25.33-17.89-52.59-18.18-80.42-7-227,259.65-362.41,428.29-201.17,66,60.49,100.75,155.43,79.66,243.74-2.87,11.49-8.94,22.14-13,33.38-3.67,10.14-6.92,20.46-9.73,30.88-1.25,4.64.77,8.87,3.94,12.87,54.88,65.54,78,146.82,62.45,231.28-14.43,86.35-62,177.91-149.72,207.32-12.43,4.07-25.22-7.29-22.72-20.35,2.28-11.9,9.95-20,19.8-26.09,36.26-22.29,63.14-53.2,82.87-90.47,19.41-36.66,28.57-76.26,31-117.43.48-8.07-.87-16.48-2.79-24.39-2.55-10.49-8.41-14.73-19.06-14.74-78.31,0-156.62.37-234.93.27ZM112.58,344c109.39-76.7,262.15-75.22,371.81,0,38.7-81.14,24.42-182-54.94-247.79C250.14-44.12,21.52,148.27,112.58,344Zm266.57-3.11-.78,1.12c27.28,19.3,30.25,58.31,13.29,85.39C376.8,452,350.38,462.72,321.4,455.8c-24.64-5.88-43.58-29.54-45.36-56.65-2.33-35.41,11-55.68,45.26-69.4-3.84-1-7.81-2.26-11.68-2-50.86,2.15-102.05,11.14-146,38.43-9.7,6-18.67,12.91-26.29,22C215,492.65,369.59,497.66,452.74,397.56c9-10,10.22-10.31-2.44-20.08C428.91,361.37,404.85,348.6,379.15,340.91ZM533.07,486.59c-3.68-19.94-15.06-35.8-26.3-51.93-7.22-10.35-8.19-10.36-16.88-1.2-17.65,18.61-35.32,37.18-58.41,49.38-1.8,1-3.1,2.84-4.64,4.3l.86,1.48c29-1.93,58.15.32,87.21-.06C520.77,488.57,526.62,487.33,533.07,486.59Zm-366.56,1.07.54-2.19c-20.35-16.1-42.94-29.68-58.23-51.25-3.4-4.18-9-10.4-14.08-4.76a37.42,37.42,0,0,0-4.61,5.63c-6.25,10-12.55,20-18.44,30.16a81.3,81.3,0,0,0-6.58,14.8c-1.91,5.73-.36,7.38,5.65,7.49C102.69,488.38,134.59,489.05,166.51,487.66Z"/></g></g></svg>